<svg width="191" height="74" viewBox="0 0 191 74" fill="none" xmlns="http://www.w3.org/2000/svg">
<path fill-rule="evenodd" clip-rule="evenodd" d="M1.18213 25.4353C13.9636 25.4353 24.4211 35.8932 24.4211 48.6747H1.37601C1.26945 48.6747 1.18213 48.5873 1.18213 48.4808V25.4353ZM47.6603 25.4353H70.7053C70.8119 25.4353 70.8992 25.5226 70.8992 25.6292V48.6747C58.1175 48.6747 47.6603 38.2168 47.6603 25.4353Z" fill="#6EA0FA"/>
<path fill-rule="evenodd" clip-rule="evenodd" d="M47.6603 71.9134H24.6148C24.5084 71.9134 24.4211 71.8261 24.4211 71.7195V48.6747H70.8992C70.8992 61.4557 60.4418 71.9134 47.6603 71.9134ZM24.4211 2.19653H47.4664C47.5729 2.19653 47.6603 2.28385 47.6603 2.39041V25.4353H1.18213C1.18213 12.6542 11.6398 2.19653 24.4211 2.19653Z" fill="#4682F0"/>
<path d="M179.528 68.712V58.2723C179.528 58.1699 179.612 58.086 179.715 58.086H180.881C180.983 58.086 181.067 58.1699 181.067 58.2723V62.7226H181.012C180.96 62.7226 180.916 62.7038 180.879 62.667C180.843 62.6296 180.825 62.585 180.826 62.5334C180.842 61.5498 180.987 60.7109 181.259 60.0195C181.549 59.2839 181.992 58.7237 182.585 58.3389C183.179 57.9543 183.928 57.7619 184.833 57.7619H184.914C186.277 57.7619 187.286 58.1873 187.941 59.0378C188.596 59.8882 188.923 61.1162 188.923 62.7226V68.712C188.923 68.8143 188.839 68.8982 188.737 68.8982H187.166C187.063 68.8982 186.979 68.8143 186.979 68.712V62.3177C186.979 61.4809 186.743 60.8092 186.27 60.3028C185.798 59.7966 185.15 59.5438 184.327 59.5438C183.476 59.5438 182.788 59.8068 182.262 60.3335C181.735 60.8599 181.472 61.5619 181.472 62.4389V68.712C181.472 68.8143 181.388 68.8982 181.286 68.8982H179.715C179.612 68.8982 179.528 68.8143 179.528 68.712ZM144.374 69.1809C143.564 69.1809 142.866 69.0433 142.279 68.7665C141.691 68.4895 141.239 68.088 140.922 67.5614C140.604 67.0349 140.446 66.4006 140.446 65.6581C140.446 64.8891 140.618 64.2476 140.962 63.7347C141.307 63.2218 141.809 62.8336 142.471 62.5706C143.132 62.3072 143.929 62.1756 144.86 62.1756H147.407C147.51 62.1756 147.593 62.0919 147.593 61.9894V61.9122C147.593 61.1697 147.401 60.6096 147.016 60.2318C146.631 59.8539 146.068 59.6649 145.325 59.6649C144.907 59.6649 144.475 59.6717 144.03 59.6852C143.585 59.6983 143.159 59.7119 142.754 59.7256C142.437 59.736 142.152 59.7512 141.901 59.77C141.848 59.7736 141.8 59.7571 141.761 59.7205C141.722 59.6842 141.701 59.6379 141.701 59.5844V58.2564C141.701 58.1589 141.775 58.0788 141.872 58.071C142.118 58.0498 142.375 58.031 142.643 58.0149C142.974 57.9949 143.314 57.9809 143.665 57.9741C144.016 57.9674 144.353 57.9644 144.678 57.9644C145.785 57.9644 146.689 58.0957 147.391 58.3589C148.093 58.622 148.612 59.0509 148.95 59.6446C149.288 60.2385 149.456 61.0418 149.456 62.0541V63.4449C149.456 63.5485 149.372 63.633 149.268 63.633H144.779C143.996 63.633 143.395 63.8225 142.977 64.2003C142.559 64.5785 142.349 65.0644 142.349 65.6581C142.349 66.252 142.559 66.7315 142.977 67.0954C143.395 67.4605 143.996 67.6428 144.779 67.6428C145.238 67.6428 145.677 67.558 146.095 67.3895C146.514 67.2208 146.861 66.9374 147.138 66.5391C147.384 66.1858 147.531 65.7126 147.579 65.1202C147.588 65.0223 147.669 64.9475 147.767 64.9475H149.268C149.372 64.9475 149.456 65.032 149.456 65.1356V68.7115C149.456 68.8141 149.373 68.8978 149.27 68.8978H148.104C148.001 68.8978 147.918 68.8141 147.918 68.7115V67.6736C147.918 67.588 147.862 67.5155 147.779 67.4933C147.697 67.4715 147.613 67.5064 147.57 67.5802C147.568 67.584 147.565 67.588 147.563 67.5914C147.259 68.1109 146.841 68.5064 146.308 68.7762C145.775 69.0462 145.13 69.1809 144.374 69.1809ZM106.248 69.1809C105.438 69.1809 104.74 69.0433 104.153 68.7665C103.566 68.4895 103.113 68.088 102.796 67.5614C102.479 67.0349 102.32 66.4006 102.32 65.6581C102.32 64.8891 102.492 64.2476 102.836 63.7347C103.181 63.2218 103.683 62.8336 104.345 62.5706C105.006 62.3072 105.803 62.1756 106.734 62.1756H109.281C109.384 62.1756 109.468 62.0919 109.468 61.9894V61.9122C109.468 61.1697 109.275 60.6096 108.891 60.2318C108.506 59.8539 107.942 59.6649 107.2 59.6649C106.781 59.6649 106.35 59.6717 105.904 59.6852C105.459 59.6983 105.033 59.7119 104.628 59.7256C104.311 59.736 104.026 59.7512 103.775 59.77C103.722 59.7736 103.674 59.7571 103.635 59.7205C103.596 59.6842 103.575 59.6379 103.575 59.5844V58.2564C103.575 58.1589 103.649 58.0788 103.746 58.071C103.992 58.0498 104.249 58.031 104.517 58.0149C104.848 57.9949 105.188 57.9809 105.539 57.9741C105.89 57.9674 106.228 57.9644 106.552 57.9644C107.659 57.9644 108.563 58.0957 109.265 58.3589C109.967 58.622 110.486 59.0509 110.824 59.6446C111.162 60.2385 111.33 61.0418 111.33 62.0541V63.4449C111.33 63.5485 111.246 63.633 111.142 63.633H106.653C105.87 63.633 105.269 63.8225 104.851 64.2003C104.433 64.5785 104.224 65.0644 104.224 65.6581C104.224 66.252 104.433 66.7315 104.851 67.0954C105.269 67.4605 105.87 67.6428 106.653 67.6428C107.112 67.6428 107.551 67.558 107.97 67.3895C108.388 67.2208 108.735 66.9374 109.012 66.5391C109.258 66.1858 109.405 65.7126 109.454 65.1202C109.462 65.0223 109.543 64.9475 109.641 64.9475H111.142C111.246 64.9475 111.33 65.032 111.33 65.1356V68.7115C111.33 68.8141 111.247 68.8978 111.144 68.8978H109.978C109.875 68.8978 109.792 68.8141 109.792 68.7115V67.6736C109.792 67.588 109.736 67.5155 109.653 67.4933C109.571 67.4715 109.487 67.5064 109.444 67.5802C109.442 67.584 109.439 67.588 109.438 67.5914C109.133 68.1109 108.715 68.5064 108.182 68.7762C107.649 69.0462 107.004 69.1809 106.248 69.1809ZM126.128 44.7486C125.319 44.7486 124.62 44.6108 124.033 44.3342C123.446 44.0571 122.993 43.6556 122.676 43.1291C122.359 42.6024 122.201 41.9681 122.201 41.2256C122.201 40.4566 122.373 39.8154 122.717 39.3022C123.061 38.7893 123.564 38.4013 124.225 38.1381C124.887 37.8747 125.683 37.7434 126.614 37.7434H129.162C129.264 37.7434 129.348 37.6594 129.348 37.5571V37.4799C129.348 36.7374 129.156 36.1773 128.771 35.7993C128.386 35.4215 127.823 35.2325 127.08 35.2325C126.662 35.2325 126.23 35.2392 125.784 35.253C125.339 35.2661 124.914 35.2796 124.509 35.2931C124.191 35.3037 123.907 35.3187 123.656 35.3375C123.603 35.3413 123.555 35.3249 123.516 35.2883C123.476 35.2517 123.456 35.2054 123.456 35.1519V33.8241C123.456 33.7267 123.529 33.6465 123.626 33.6385C123.872 33.6176 124.13 33.5987 124.397 33.5825C124.728 33.5626 125.069 33.5486 125.42 33.5419C125.771 33.5351 126.108 33.5321 126.433 33.5321C127.539 33.5321 128.444 33.6634 129.145 33.9265C129.847 34.1895 130.367 34.6187 130.705 35.2122C131.042 35.8061 131.211 36.6093 131.211 37.6218V39.0126C131.211 39.116 131.126 39.2008 131.022 39.2008H126.534C125.751 39.2008 125.15 39.39 124.732 39.768C124.313 40.1463 124.104 40.6321 124.104 41.2256C124.104 41.8195 124.313 42.299 124.732 42.6631C125.15 43.028 125.751 43.2103 126.534 43.2103C126.993 43.2103 127.431 43.1257 127.85 42.957C128.268 42.7883 128.616 42.505 128.892 42.1068C129.138 41.7533 129.286 41.2802 129.334 40.6877C129.342 40.5898 129.423 40.515 129.522 40.515H131.022C131.126 40.515 131.211 40.5998 131.211 40.7032V44.2793C131.211 44.3816 131.127 44.4655 131.024 44.4655H129.858C129.756 44.4655 129.672 44.3816 129.672 44.2793V43.2412C129.672 43.1557 129.617 43.083 129.534 43.0608C129.452 43.039 129.367 43.0741 129.325 43.1479C129.323 43.1515 129.319 43.1557 129.318 43.1591C129.014 43.6786 128.596 44.0742 128.062 44.344C127.529 44.6138 126.885 44.7486 126.128 44.7486ZM96.4298 20.3978C95.2826 20.3978 94.243 20.209 93.3119 19.8307C92.3803 19.4531 91.5805 18.9195 90.9124 18.2315C90.2439 17.5431 89.728 16.7297 89.3637 15.7914C88.999 14.8535 88.8167 13.8308 88.8167 12.7238V12.2785C88.8167 11.3334 88.9818 10.4192 89.3127 9.53479C89.6432 8.65102 90.1227 7.85457 90.7502 7.14544C91.378 6.43715 92.144 5.87708 93.0485 5.46543C93.9527 5.05356 94.972 4.84763 96.1057 4.84763C97.3341 4.84763 98.4276 5.08063 99.3858 5.54619C100.344 6.01176 101.114 6.66 101.694 7.48986C102.238 8.26707 102.568 9.16035 102.685 10.1674C102.692 10.2219 102.676 10.2716 102.639 10.3126C102.603 10.3541 102.556 10.3752 102.5 10.3752H100.846C100.752 10.3752 100.675 10.3078 100.661 10.2156C100.551 9.46354 100.288 8.83137 99.8717 8.32014C99.4262 7.77359 98.8767 7.36152 98.2217 7.08497C97.5671 6.80821 96.8616 6.67015 96.1057 6.67015C95.3367 6.67015 94.6276 6.80821 93.9798 7.08497C93.3318 7.36152 92.7751 7.75647 92.3091 8.26939C91.8435 8.78232 91.4826 9.39673 91.2259 10.1122C90.9697 10.8273 90.8416 11.6305 90.8416 12.5216C90.8416 13.5342 90.9798 14.4213 91.2564 15.1842C91.5334 15.9468 91.9215 16.5811 92.4205 17.0872C92.9201 17.5934 93.5106 17.975 94.1923 18.2315C94.8737 18.4877 95.6203 18.6161 96.4298 18.6161C97.5773 18.6161 98.5864 18.3831 99.4566 17.9175C99.9926 17.631 100.448 17.2919 100.822 16.9005C100.883 16.8377 100.975 16.8244 101.051 16.8686C101.126 16.9126 101.161 17.0003 101.135 17.0834L101.067 17.3101C101.04 17.3993 100.954 17.4538 100.862 17.4403C100.769 17.427 100.702 17.3492 100.702 17.2562V14.7123C100.702 14.6099 100.618 14.526 100.516 14.526H96.0899C95.9875 14.526 95.9036 14.442 95.9036 14.3397V13.0521C95.9036 12.9496 95.9875 12.8656 96.0899 12.8656H102.379C102.481 12.8656 102.565 12.9496 102.565 13.0521C102.565 14.5613 102.565 16.0709 102.565 17.5807C102.565 17.6236 102.552 17.6608 102.526 17.6951C101.87 18.534 101.032 19.1931 100.014 19.6692C98.9748 20.1546 97.7798 20.3978 96.4298 20.3978ZM96.2476 44.8303C94.8978 44.8303 93.7472 44.5939 92.7954 44.1215C91.8435 43.6492 91.0777 43.0348 90.4969 42.2792C89.9168 41.5231 89.4916 40.7032 89.2216 39.8188C88.9514 38.935 88.8167 38.081 88.8167 37.2575V36.8118C88.8167 35.9213 88.9548 35.0303 89.232 34.1392C89.5085 33.2486 89.9373 32.4391 90.5177 31.7101C91.098 30.9808 91.8537 30.3937 92.7852 29.9482C93.7164 29.503 94.8306 29.2801 96.126 29.2801C97.4489 29.2801 98.583 29.5097 99.5277 29.9685C100.473 30.4273 101.222 31.0682 101.775 31.8921C102.294 32.663 102.623 33.5645 102.762 34.5965C102.77 34.6514 102.754 34.7022 102.717 34.7441C102.681 34.7861 102.633 34.8077 102.577 34.8077H100.925C100.832 34.8077 100.755 34.7417 100.74 34.6502C100.62 33.884 100.357 33.2442 99.9531 32.7323C99.5209 32.1862 98.9778 31.7773 98.323 31.5071C97.6684 31.2373 96.936 31.1024 96.126 31.1024C95.2486 31.1024 94.479 31.2542 93.8181 31.5578C93.1563 31.8616 92.6066 32.287 92.1676 32.8336C91.7287 33.3799 91.3983 34.0112 91.1754 34.7267C90.9528 35.4418 90.8416 36.2183 90.8416 37.0554C90.8416 37.8518 90.9528 38.6075 91.1754 39.323C91.3983 40.0382 91.7355 40.6727 92.1879 41.226C92.64 41.7798 93.2039 42.2147 93.8787 42.532C94.5534 42.8494 95.3431 43.0077 96.2476 43.0077C97.5164 43.0077 98.583 42.6908 99.4469 42.0563C100.274 41.4489 100.792 40.5812 101 39.4547C101.016 39.3659 101.093 39.3027 101.183 39.3027H102.835C102.891 39.3027 102.94 39.3253 102.976 39.3682C103.014 39.4116 103.028 39.4631 103.019 39.5192C102.866 40.4473 102.535 41.2994 102.028 42.0766C101.481 42.9132 100.725 43.5813 99.7603 44.081C98.7953 44.5803 97.6244 44.8303 96.2476 44.8303ZM94.9864 69.2623C93.7582 69.2623 92.7119 69.0602 91.8482 68.6551C90.9843 68.2502 90.3225 67.6901 89.8637 66.9746C89.4377 66.3108 89.2095 65.5646 89.1791 64.7377C89.1772 64.6851 89.195 64.6392 89.2311 64.6016C89.2677 64.5639 89.3123 64.5447 89.3652 64.5447H90.9798C91.0779 64.5447 91.1589 64.6204 91.1657 64.7183C91.1923 65.1054 91.3088 65.4936 91.5139 65.8811C91.7503 66.3264 92.1484 66.6977 92.7085 66.9949C93.269 67.2918 94.028 67.4402 94.9864 67.4402C95.8776 67.4402 96.6064 67.3089 97.1734 67.0453C97.7403 66.7822 98.1585 66.4383 98.4287 66.0126C98.6983 65.5877 98.8338 65.1255 98.8338 64.6259C98.8338 64.0185 98.5703 63.5157 98.0441 63.1176C97.5174 62.7192 96.7478 62.4727 95.7353 62.3782L94.0954 62.2367C92.7861 62.1287 91.7401 61.7236 90.9572 61.0221C90.1739 60.3197 89.7829 59.3954 89.7829 58.2479C89.7829 57.3434 90.002 56.5538 90.4407 55.8789C90.8796 55.204 91.4904 54.6742 92.2729 54.2894C93.0563 53.9048 93.9671 53.7124 95.0067 53.7124C96.0328 53.7124 96.9368 53.9014 97.72 54.2792C98.5029 54.6575 99.1137 55.1871 99.5522 55.8687C99.9609 56.5041 100.18 57.2532 100.207 58.1164C100.209 58.1689 100.191 58.2143 100.155 58.2519C100.118 58.2896 100.074 58.3088 100.021 58.3088H98.4069C98.3079 58.3088 98.227 58.2321 98.2211 58.1338C98.1969 57.7257 98.0866 57.3388 97.8921 56.9724C97.6692 56.5542 97.3219 56.2098 96.8495 55.9396C96.377 55.6696 95.7628 55.5345 95.0067 55.5345C94.2779 55.5345 93.6739 55.6628 93.1948 55.9195C92.7152 56.1759 92.3577 56.5098 92.1218 56.9214C91.8854 57.3335 91.7672 57.7752 91.7672 58.2479C91.7672 58.7875 91.9765 59.267 92.3949 59.6856C92.8131 60.1039 93.4341 60.347 94.2572 60.4142L95.8977 60.5559C96.91 60.6371 97.784 60.8494 98.5194 61.1942C99.2552 61.5382 99.822 61.9974 100.22 62.571C100.618 63.1446 100.818 63.8296 100.818 64.6259C100.818 65.5304 100.575 66.3336 100.089 67.0351C99.6027 67.7375 98.9211 68.284 98.0441 68.6754C97.1662 69.0669 96.1476 69.2623 94.9864 69.2623ZM110.364 20.3978C109.419 20.3978 108.603 20.236 107.914 19.9119C107.226 19.5878 106.666 19.1597 106.234 18.6262C105.802 18.093 105.481 17.4955 105.272 16.8344C105.062 16.173 104.958 15.4977 104.958 14.8093V14.445C104.958 13.7431 105.062 13.0614 105.272 12.4001C105.481 11.7385 105.802 11.1414 106.234 10.6082C106.666 10.0748 107.216 9.6496 107.884 9.33267C108.552 9.01531 109.338 8.85653 110.242 8.85653C111.417 8.85653 112.386 9.10982 113.148 9.61598C113.911 10.1224 114.478 10.7733 114.849 11.5698C115.22 12.3662 115.406 13.2166 115.406 14.1209V14.8053C115.406 14.908 115.322 14.9916 115.219 14.9916H105.995C105.892 14.9916 105.808 14.908 105.808 14.8053V13.72C105.808 13.6177 105.892 13.5342 105.995 13.5342H113.988L113.861 13.7608C113.82 13.8327 113.741 13.8684 113.66 13.852C113.58 13.8346 113.521 13.7697 113.513 13.6875C113.464 13.1811 113.352 12.7286 113.179 12.3295C112.936 11.7694 112.571 11.3334 112.085 11.0233C111.599 10.7129 110.985 10.5575 110.242 10.5575C109.473 10.5575 108.836 10.7327 108.329 11.0839C107.823 11.4351 107.445 11.9138 107.195 12.5216C106.945 13.1293 106.821 13.8308 106.821 14.6273C106.821 15.3964 106.945 16.0887 107.195 16.7026C107.445 17.3168 107.833 17.8027 108.359 18.1602C108.886 18.5182 109.554 18.6975 110.364 18.6975C111.215 18.6975 111.907 18.508 112.439 18.1302C112.925 17.7862 113.234 17.3917 113.367 16.9468C113.391 16.8667 113.462 16.8141 113.545 16.8141H114.991C115.05 16.8141 115.101 16.8388 115.137 16.8855C115.174 16.9323 115.186 16.9879 115.172 17.0452C115.011 17.6907 114.731 18.2547 114.333 18.7376C113.887 19.2774 113.327 19.6891 112.652 19.9726C111.977 20.2559 111.215 20.3978 110.364 20.3978ZM117.929 19.8472V9.40751C117.929 9.30518 118.012 9.22125 118.115 9.22125H119.281C119.384 9.22125 119.468 9.30518 119.468 9.40751V13.8579H119.412C119.361 13.8579 119.316 13.8391 119.28 13.8023C119.243 13.7648 119.225 13.72 119.226 13.6686C119.243 12.6851 119.387 11.8461 119.66 11.1548C119.949 10.4192 120.392 9.85891 120.986 9.47411C121.58 9.08995 122.329 8.89712 123.233 8.89712H123.314C124.678 8.89712 125.687 9.32252 126.341 10.1731C126.996 11.0233 127.324 12.2514 127.324 13.8579V19.8472C127.324 19.9496 127.24 20.0335 127.137 20.0335H125.566C125.464 20.0335 125.38 19.9496 125.38 19.8472V13.453C125.38 12.6162 125.144 11.9447 124.671 11.4385C124.199 10.9323 123.551 10.6793 122.727 10.6793C121.877 10.6793 121.189 10.9421 120.662 11.4685C120.136 11.9952 119.872 12.6971 119.872 13.5741V19.8472C119.872 19.9496 119.789 20.0335 119.686 20.0335H118.115C118.012 20.0335 117.929 19.9496 117.929 19.8472ZM135.253 20.3978C134.308 20.3978 133.491 20.236 132.802 19.9119C132.114 19.5878 131.554 19.1597 131.122 18.6262C130.69 18.093 130.37 17.4955 130.16 16.8344C129.951 16.173 129.846 15.4977 129.846 14.8093V14.445C129.846 13.7431 129.951 13.0614 130.16 12.4001C130.37 11.7385 130.69 11.1414 131.122 10.6082C131.554 10.0748 132.104 9.6496 132.772 9.33267C133.44 9.01531 134.227 8.85653 135.131 8.85653C136.305 8.85653 137.274 9.10982 138.037 9.61598C138.799 10.1224 139.366 10.7733 139.737 11.5698C140.108 12.3662 140.294 13.2166 140.294 14.1209V14.8053C140.294 14.908 140.21 14.9916 140.108 14.9916H130.883C130.78 14.9916 130.697 14.908 130.697 14.8053V13.72C130.697 13.6177 130.78 13.5342 130.883 13.5342H138.876L138.749 13.7608C138.708 13.8327 138.629 13.8684 138.548 13.852C138.468 13.8346 138.409 13.7697 138.401 13.6875C138.352 13.1811 138.24 12.7286 138.067 12.3295C137.824 11.7694 137.459 11.3334 136.974 11.0233C136.487 10.7129 135.873 10.5575 135.131 10.5575C134.361 10.5575 133.724 10.7327 133.218 11.0839C132.711 11.4351 132.333 11.9138 132.083 12.5216C131.834 13.1293 131.709 13.8308 131.709 14.6273C131.709 15.3964 131.834 16.0887 132.083 16.7026C132.333 17.3168 132.722 17.8027 133.248 18.1602C133.775 18.5182 134.442 18.6975 135.253 18.6975C136.103 18.6975 136.795 18.508 137.328 18.1302C137.813 17.7862 138.122 17.3917 138.255 16.9468C138.279 16.8667 138.35 16.8141 138.434 16.8141H139.879C139.938 16.8141 139.989 16.8388 140.026 16.8855C140.062 16.9323 140.074 16.9879 140.06 17.0452C139.9 17.6907 139.619 18.2547 139.221 18.7376C138.776 19.2774 138.216 19.6891 137.54 19.9726C136.866 20.2559 136.103 20.3978 135.253 20.3978ZM142.817 19.8472V9.40751C142.817 9.30518 142.901 9.22125 143.003 9.22125H144.17C144.272 9.22125 144.356 9.30518 144.356 9.40751V13.6756H144.274C144.274 12.096 144.622 10.9387 145.317 10.2031C146.013 9.46735 147.055 9.09967 148.445 9.09967H148.624C148.726 9.09967 148.81 9.18361 148.81 9.28594V10.6545C148.81 10.7569 148.726 10.8408 148.624 10.8408H148.122C147.042 10.8408 146.211 11.1277 145.631 11.7015C145.051 12.2751 144.76 13.102 144.76 14.182V19.8472C144.76 19.9496 144.677 20.0335 144.574 20.0335H143.003C142.901 20.0335 142.817 19.9496 142.817 19.8472ZM153.843 20.3166C153.034 20.3166 152.335 20.1787 151.748 19.9022C151.161 19.6252 150.708 19.2235 150.391 18.6971C150.074 18.1704 149.915 17.5363 149.915 16.7936C149.915 16.0246 150.087 15.3833 150.431 14.8704C150.776 14.3573 151.279 13.9693 151.94 13.7063C152.602 13.4426 153.398 13.3113 154.329 13.3113H156.876C156.979 13.3113 157.063 13.2274 157.063 13.1251V13.0479C157.063 12.3054 156.87 11.7453 156.486 11.3675C156.101 10.9894 155.537 10.8006 154.795 10.8006C154.376 10.8006 153.945 10.8074 153.499 10.8209C153.054 10.834 152.629 10.8476 152.224 10.8611C151.906 10.8717 151.622 10.8867 151.371 10.9055C151.317 10.9093 151.27 10.8928 151.23 10.8562C151.191 10.8196 151.171 10.7733 151.171 10.7201V9.39208C151.171 9.29461 151.244 9.21448 151.341 9.20666C151.587 9.18551 151.844 9.1667 152.112 9.15042C152.443 9.13054 152.784 9.11659 153.135 9.10982C153.486 9.10306 153.823 9.1001 154.147 9.1001C155.254 9.1001 156.158 9.23139 156.86 9.49441C157.562 9.75764 158.082 10.1866 158.419 10.7801C158.757 11.3742 158.926 12.1774 158.926 13.1898V14.5805C158.926 14.6839 158.841 14.7687 158.737 14.7687H154.249C153.465 14.7687 152.865 14.9579 152.447 15.336C152.028 15.7142 151.819 16.2001 151.819 16.7936C151.819 17.3877 152.028 17.867 152.447 18.2311C152.865 18.5962 153.465 18.7782 154.249 18.7782C154.707 18.7782 155.146 18.6937 155.565 18.5249C155.983 18.3564 156.33 18.0729 156.607 17.6748C156.853 17.3213 157 16.8483 157.049 16.2559C157.057 16.158 157.138 16.0829 157.236 16.0829H158.737C158.841 16.0829 158.926 16.1677 158.926 16.2713V19.8472C158.926 19.9496 158.842 20.0335 158.739 20.0335H157.573C157.471 20.0335 157.387 19.9496 157.387 19.8472V18.8091C157.387 18.7237 157.332 18.6512 157.248 18.629C157.166 18.607 157.082 18.6421 157.039 18.7159C157.038 18.7197 157.034 18.7237 157.033 18.7271C156.729 19.2466 156.31 19.6421 155.777 19.9119C155.244 20.1819 154.599 20.3166 153.843 20.3166ZM160.882 6.60503V5.439C160.882 5.33624 160.965 5.25273 161.068 5.25273H162.566H164.137C164.24 5.25273 164.324 5.33624 164.324 5.439V6.60503V19.8472C164.324 19.9496 164.24 20.0335 164.137 20.0335H162.566C162.463 20.0335 162.38 19.9496 162.38 19.8472V6.97756C162.38 6.87523 162.296 6.7913 162.194 6.7913H161.068C160.965 6.7913 160.882 6.70778 160.882 6.60503ZM104.035 31.0373V29.8715C104.035 29.7687 104.118 29.685 104.221 29.685H105.719H107.291C107.393 29.685 107.477 29.7687 107.477 29.8715V31.0373V44.2797C107.477 44.382 107.393 44.466 107.291 44.466H105.719C105.617 44.466 105.533 44.382 105.533 44.2797V31.41C105.533 31.3077 105.449 31.2238 105.347 31.2238H104.221C104.118 31.2238 104.035 31.1398 104.035 31.0373ZM115.568 44.8303C114.623 44.8303 113.806 44.6683 113.117 44.3444C112.429 44.0203 111.869 43.5919 111.437 43.0587C111.005 42.5253 110.685 41.928 110.475 41.2666C110.266 40.6051 110.162 39.9302 110.162 39.2418V38.8775C110.162 38.1755 110.266 37.4939 110.475 36.8325C110.685 36.1708 111.005 35.5739 111.437 35.0405C111.869 34.5073 112.419 34.0819 113.087 33.7649C113.756 33.4478 114.542 33.289 115.446 33.289C116.62 33.289 117.589 33.5423 118.352 34.0485C119.114 34.5546 119.681 35.2058 120.052 36.0023C120.424 36.7987 120.609 37.6489 120.609 38.5534V39.2375C120.609 39.3399 120.525 39.4238 120.423 39.4238H111.198C111.095 39.4238 111.012 39.3399 111.012 39.2375V38.1525C111.012 38.0502 111.095 37.9666 111.198 37.9666H119.192L119.064 38.1931C119.024 38.265 118.944 38.3007 118.863 38.2842C118.783 38.2669 118.725 38.2022 118.716 38.1197C118.667 37.6136 118.555 37.1611 118.382 36.7617C118.139 36.2016 117.774 35.7659 117.289 35.4557C116.802 35.1451 116.188 34.9897 115.446 34.9897C114.677 34.9897 114.039 35.1652 113.533 35.5164C113.027 35.8676 112.648 36.3463 112.399 36.9541C112.149 37.5616 112.024 38.2631 112.024 39.0595C112.024 39.8289 112.149 40.5211 112.399 41.1349C112.648 41.7491 113.037 42.2352 113.563 42.5927C114.09 42.9507 114.758 43.1297 115.568 43.1297C116.418 43.1297 117.11 42.9405 117.643 42.5625C118.129 42.2185 118.438 41.8242 118.57 41.3791C118.595 41.299 118.665 41.2463 118.749 41.2463H120.194C120.254 41.2463 120.304 41.2713 120.341 41.3178C120.377 41.3645 120.389 41.4203 120.375 41.4774C120.215 42.1225 119.934 42.6872 119.536 43.1697C119.091 43.7097 118.53 44.1215 117.856 44.4049C117.181 44.6884 116.418 44.8303 115.568 44.8303ZM134.544 44.2797V33.84C134.544 33.7377 134.628 33.6537 134.73 33.6537H135.896C135.999 33.6537 136.083 33.7377 136.083 33.84V38.2903H136.027C135.976 38.2903 135.931 38.2715 135.895 38.2345C135.858 38.1973 135.84 38.1525 135.841 38.1009C135.857 37.1175 136.002 36.2784 136.275 35.587C136.564 34.8517 137.007 34.2912 137.601 33.9066C138.195 33.5222 138.944 33.3296 139.848 33.3296H139.929C141.292 33.3296 142.302 33.7548 142.956 34.6056C143.611 35.4557 143.938 36.6839 143.938 38.2903V44.2797C143.938 44.382 143.855 44.466 143.752 44.466H142.181C142.079 44.466 141.995 44.382 141.995 44.2797V37.8853C141.995 37.0486 141.759 36.3771 141.286 35.871C140.814 35.3646 140.166 35.1117 139.342 35.1117C138.492 35.1117 137.803 35.3745 137.277 35.901C136.751 36.4275 136.487 37.1294 136.487 38.0064V44.2797C136.487 44.382 136.404 44.466 136.301 44.466H134.73C134.628 44.466 134.544 44.382 134.544 44.2797ZM146.137 35.006V33.84C146.137 33.7377 146.221 33.6537 146.324 33.6537H147.984H149.555C149.658 33.6537 149.742 33.7377 149.742 33.84V35.006V44.2797C149.742 44.382 149.658 44.466 149.555 44.466H147.984C147.881 44.466 147.797 44.382 147.797 44.2797V35.3786C147.797 35.2762 147.714 35.1923 147.612 35.1923H146.324C146.221 35.1923 146.137 35.1088 146.137 35.006ZM148.344 31.9122C147.912 31.9122 147.592 31.7974 147.383 31.5682C147.173 31.3386 147.069 31.0483 147.069 30.6975C147.069 30.3463 147.173 30.0563 147.383 29.8269C147.592 29.5975 147.912 29.4827 148.344 29.4827C148.776 29.4827 149.097 29.5975 149.306 29.8269C149.515 30.0563 149.62 30.3463 149.62 30.6975C149.62 31.0483 149.515 31.3386 149.306 31.5682C149.097 31.7974 148.776 31.9122 148.344 31.9122ZM153.277 44.2797V33.84C153.277 33.7377 153.36 33.6537 153.463 33.6537H154.629C154.731 33.6537 154.815 33.7377 154.815 33.84V38.2903H154.76C154.709 38.2903 154.664 38.2715 154.628 38.2345C154.591 38.1973 154.574 38.1525 154.574 38.1009C154.59 37.1175 154.735 36.2784 155.008 35.587C155.298 34.8517 155.74 34.2912 156.334 33.9066C156.928 33.5222 157.677 33.3296 158.582 33.3296H158.662C160.026 33.3296 161.035 33.7548 161.69 34.6056C162.344 35.4557 162.672 36.6839 162.672 38.2903V44.2797C162.672 44.382 162.588 44.466 162.485 44.466H160.914C160.812 44.466 160.728 44.382 160.728 44.2797V37.8853C160.728 37.0486 160.492 36.3771 160.019 35.871C159.547 35.3646 158.899 35.1117 158.075 35.1117C157.225 35.1117 156.536 35.3745 156.01 35.901C155.484 36.4275 155.22 37.1294 155.22 38.0064V44.2797C155.22 44.382 155.137 44.466 155.034 44.466H153.463C153.36 44.466 153.277 44.382 153.277 44.2797ZM169.722 48.6772C169.222 48.6772 168.719 48.6573 168.213 48.6167C167.766 48.5808 167.336 48.5343 166.926 48.4778C166.833 48.4645 166.766 48.3863 166.766 48.293V47.0276C166.766 46.9718 166.787 46.924 166.829 46.8875C166.871 46.8511 166.921 46.8357 166.976 46.8428C167.398 46.898 167.838 46.9462 168.294 46.9866C168.827 47.034 169.33 47.0577 169.803 47.0577C170.788 47.0577 171.574 46.9259 172.162 46.6629C172.749 46.3995 173.174 45.9876 173.437 45.4275C173.7 44.867 173.832 44.1482 173.832 43.2712V41.2438C173.832 41.2178 173.837 41.1952 173.846 41.1715L173.961 40.8985C173.999 40.8097 174.097 40.7643 174.19 40.7937C174.282 40.8228 174.336 40.9173 174.315 41.0119C174.199 41.529 174.024 41.9887 173.791 42.3906C173.373 43.112 172.829 43.6526 172.162 44.0101C171.493 44.3677 170.754 44.5465 169.944 44.5465C169.188 44.5465 168.497 44.4015 167.869 44.1114C167.241 43.8211 166.701 43.42 166.249 42.9069C165.797 42.394 165.446 41.803 165.196 41.1349C164.947 40.4668 164.822 39.7615 164.822 39.0189V38.6546C164.822 37.8988 164.95 37.1935 165.206 36.5389C165.463 35.8841 165.82 35.3139 166.28 34.828C166.739 34.3419 167.289 33.9637 167.93 33.6943C168.571 33.4241 169.276 33.289 170.046 33.289C170.95 33.289 171.746 33.4816 172.435 33.8662C173.123 34.2506 173.666 34.8111 174.065 35.5464C174.439 36.2378 174.656 37.0761 174.714 38.0595C174.717 38.1115 174.701 38.1574 174.666 38.1958C174.631 38.2341 174.587 38.2548 174.535 38.2563L174.349 38.2631C174.296 38.265 174.251 38.2476 174.213 38.2113C174.175 38.1747 174.156 38.1295 174.156 38.0768V33.84C174.156 33.7377 174.24 33.6537 174.343 33.6537H175.509C175.611 33.6537 175.695 33.7377 175.695 33.84V43.1904C175.695 44.4858 175.496 45.5356 175.098 46.3388C174.699 47.142 174.065 47.7321 173.194 48.1104C172.323 48.4884 171.166 48.6772 169.722 48.6772ZM170.309 42.765C170.957 42.765 171.547 42.6236 172.08 42.3396C172.614 42.0563 173.039 41.648 173.356 41.1146C173.673 40.5816 173.832 39.9437 173.832 39.2012V38.2698C173.832 37.5408 173.666 36.9266 173.336 36.4275C173.005 35.9281 172.576 35.5498 172.05 35.2936C171.524 35.0371 170.95 34.9088 170.329 34.9088C169.627 34.9088 169.006 35.0711 168.466 35.395C167.926 35.7187 167.508 36.1742 167.211 36.7617C166.914 37.3489 166.766 38.0404 166.766 38.8367C166.766 39.6331 166.917 40.3283 167.221 40.9226C167.525 41.5161 167.943 41.972 168.477 42.2893C169.009 42.6062 169.62 42.765 170.309 42.765ZM114.29 68.712V58.2723C114.29 58.1699 114.374 58.086 114.477 58.086H115.643C115.746 58.086 115.829 58.1699 115.829 58.2723V62.7226H115.774C115.722 62.7226 115.677 62.7038 115.641 62.667C115.605 62.6296 115.587 62.585 115.588 62.5334C115.604 61.5498 115.749 60.7109 116.021 60.0195C116.311 59.2839 116.754 58.7237 117.348 58.3389C117.942 57.9543 118.691 57.7619 119.595 57.7619H119.676C121.039 57.7619 122.048 58.1873 122.703 59.0378C123.358 59.8882 123.685 61.1162 123.685 62.7226V68.712C123.685 68.8143 123.601 68.8982 123.499 68.8982H121.928C121.825 68.8982 121.742 68.8143 121.742 68.712V62.3177C121.742 61.4809 121.505 60.8092 121.033 60.3028C120.56 59.7966 119.913 59.5438 119.089 59.5438C118.239 59.5438 117.55 59.8068 117.024 60.3335C116.498 60.8599 116.234 61.5619 116.234 62.4389V68.712C116.234 68.8143 116.15 68.8982 116.048 68.8982H114.477C114.374 68.8982 114.29 68.8143 114.29 68.712ZM125.884 59.4383V58.2723C125.884 58.1699 125.968 58.086 126.07 58.086H127.731H129.302C129.404 58.086 129.488 58.1699 129.488 58.2723V59.4383V68.712C129.488 68.8143 129.404 68.8982 129.302 68.8982H127.731C127.628 68.8982 127.544 68.8143 127.544 68.712V59.811C127.544 59.7085 127.461 59.6245 127.358 59.6245H126.07C125.968 59.6245 125.884 59.541 125.884 59.4383ZM128.091 56.3444C127.659 56.3444 127.339 56.2296 127.129 56.0005C126.92 55.7708 126.815 55.4808 126.815 55.13C126.815 54.7788 126.92 54.4885 127.129 54.2593C127.339 54.0297 127.659 53.9149 128.091 53.9149C128.523 53.9149 128.844 54.0297 129.053 54.2593C129.262 54.4885 129.367 54.7788 129.367 55.13C129.367 55.4808 129.262 55.7708 129.053 56.0005C128.844 56.2296 128.523 56.3444 128.091 56.3444ZM131.444 59.3577V58.2723C131.444 58.1699 131.528 58.086 131.63 58.086H133.121C133.223 58.086 133.307 58.002 133.307 57.8997V54.9917C133.307 54.8894 133.391 54.8059 133.493 54.8059H134.983C135.086 54.8059 135.169 54.8894 135.169 54.9917V57.8997C135.169 58.002 135.253 58.086 135.356 58.086H138.709C138.811 58.086 138.895 58.1699 138.895 58.2723V59.3577C138.895 59.4603 138.811 59.5438 138.709 59.5438H135.356C135.253 59.5438 135.169 59.6277 135.169 59.7301V65.456C135.169 66.0368 135.328 66.4854 135.646 66.8025C135.963 67.1199 136.412 67.2783 136.992 67.2783H138.709C138.811 67.2783 138.895 67.3622 138.895 67.4647V68.8331C138.895 68.9359 138.811 69.0194 138.709 69.0194H137.235C136.425 69.0194 135.727 68.9048 135.139 68.6754C134.552 68.4458 134.1 68.051 133.782 67.491C133.466 66.9305 133.307 66.1714 133.307 65.2132V59.7301C133.307 59.6277 133.223 59.5438 133.121 59.5438H131.63C131.528 59.5438 131.444 59.4603 131.444 59.3577ZM151.21 59.3577V58.2723C151.21 58.1699 151.294 58.086 151.396 58.086H152.887C152.989 58.086 153.072 58.002 153.072 57.8997V54.9917C153.072 54.8894 153.156 54.8059 153.259 54.8059H154.749C154.851 54.8059 154.935 54.8894 154.935 54.9917V57.8997C154.935 58.002 155.019 58.086 155.121 58.086H158.475C158.577 58.086 158.661 58.1699 158.661 58.2723V59.3577C158.661 59.4603 158.577 59.5438 158.475 59.5438H155.121C155.019 59.5438 154.935 59.6277 154.935 59.7301V65.456C154.935 66.0368 155.094 66.4854 155.411 66.8025C155.728 67.1199 156.177 67.2783 156.758 67.2783H158.475C158.577 67.2783 158.661 67.3622 158.661 67.4647V68.8331C158.661 68.9359 158.577 69.0194 158.475 69.0194H157.001C156.191 69.0194 155.492 68.9048 154.905 68.6754C154.318 68.4458 153.865 68.051 153.548 67.491C153.231 66.9305 153.072 66.1714 153.072 65.2132V59.7301C153.072 59.6277 152.989 59.5438 152.887 59.5438H151.396C151.294 59.5438 151.21 59.4603 151.21 59.3577ZM160.05 59.4383V58.2723C160.05 58.1699 160.134 58.086 160.236 58.086H161.896H163.468C163.57 58.086 163.654 58.1699 163.654 58.2723V59.4383V68.712C163.654 68.8143 163.57 68.8982 163.468 68.8982H161.896C161.794 68.8982 161.71 68.8143 161.71 68.712V59.811C161.71 59.7085 161.626 59.6245 161.524 59.6245H160.236C160.134 59.6245 160.05 59.541 160.05 59.4383ZM162.257 56.3444C161.825 56.3444 161.504 56.2296 161.295 56.0005C161.086 55.7708 160.981 55.4808 160.981 55.13C160.981 54.7788 161.086 54.4885 161.295 54.2593C161.504 54.0297 161.825 53.9149 162.257 53.9149C162.689 53.9149 163.009 54.0297 163.219 54.2593C163.428 54.4885 163.532 54.7788 163.532 55.13C163.532 55.4808 163.428 55.7708 163.219 56.0005C163.009 56.2296 162.689 56.3444 162.257 56.3444ZM171.797 69.2623C170.853 69.2623 170.022 69.1008 169.307 68.7767C168.592 68.4527 167.988 68.0244 167.495 67.491C167.002 66.9577 166.631 66.3604 166.381 65.6991C166.132 65.0373 166.007 64.3625 166.007 63.674V63.3097C166.007 62.6213 166.135 61.9431 166.391 61.2752C166.648 60.6066 167.026 60.0064 167.525 59.4725C168.025 58.9397 168.632 58.5143 169.348 58.1974C170.063 57.8801 170.879 57.7213 171.797 57.7213C172.715 57.7213 173.532 57.8801 174.247 58.1974C174.963 58.5143 175.571 58.9397 176.07 59.4725C176.569 60.0064 176.947 60.6066 177.203 61.2752C177.46 61.9431 177.588 62.6213 177.588 63.3097V63.674C177.588 64.3625 177.463 65.0373 177.214 65.6991C176.964 66.3604 176.593 66.9577 176.1 67.491C175.607 68.0244 175.003 68.4527 174.288 68.7767C173.573 69.1008 172.742 69.2623 171.797 69.2623ZM171.797 67.5214C172.608 67.5214 173.299 67.3427 173.873 66.9848C174.447 66.6269 174.885 66.1446 175.189 65.5371C175.493 64.9293 175.645 64.2476 175.645 63.492C175.645 62.7226 175.489 62.0342 175.179 61.4268C174.868 60.8193 174.426 60.3402 173.852 59.9891C173.279 59.6383 172.594 59.4628 171.797 59.4628C171.015 59.4628 170.333 59.6383 169.752 59.9891C169.172 60.3402 168.727 60.8193 168.416 61.4268C168.105 62.0342 167.951 62.7226 167.951 63.492C167.951 64.2476 168.102 64.9293 168.406 65.5371C168.71 66.1446 169.148 66.6269 169.722 66.9848C170.296 67.3427 170.987 67.5214 171.797 67.5214Z" fill="#1E1E23"/>
</svg>
