<svg width="20" height="20" viewBox="0 0 20 20" fill="none" xmlns="http://www.w3.org/2000/svg">
<path d="M10.0002 9.79169C10.4029 9.79169 10.7467 9.64933 11.0314 9.3646C11.3161 9.07988 11.4585 8.73613 11.4585 8.33335C11.4585 7.93058 11.3161 7.58683 11.0314 7.3021C10.7467 7.01738 10.4029 6.87502 10.0002 6.87502C9.59738 6.87502 9.25363 7.01738 8.96891 7.3021C8.68419 7.58683 8.54183 7.93058 8.54183 8.33335C8.54183 8.73613 8.68419 9.07988 8.96891 9.3646C9.25363 9.64933 9.59738 9.79169 10.0002 9.79169ZM10.0002 16.6875C11.8474 15.007 13.212 13.4827 14.0939 12.1146C14.9759 10.7465 15.4168 9.54169 15.4168 8.50002C15.4168 6.86113 14.8925 5.52085 13.8439 4.47919C12.7953 3.43752 11.5141 2.91669 10.0002 2.91669C8.48627 2.91669 7.20502 3.43752 6.15641 4.47919C5.1078 5.52085 4.5835 6.86113 4.5835 8.50002C4.5835 9.54169 5.03488 10.7465 5.93766 12.1146C6.84044 13.4827 8.19461 15.007 10.0002 16.6875ZM10.0002 18.3334C7.76405 16.4306 6.09391 14.6632 4.98975 13.0313C3.88558 11.3993 3.3335 9.88891 3.3335 8.50002C3.3335 6.41669 4.00363 4.75696 5.34391 3.52085C6.68419 2.28474 8.23627 1.66669 10.0002 1.66669C11.7641 1.66669 13.3161 2.28474 14.6564 3.52085C15.9967 4.75696 16.6668 6.41669 16.6668 8.50002C16.6668 9.88891 16.1147 11.3993 15.0106 13.0313C13.9064 14.6632 12.2363 16.4306 10.0002 18.3334Z" fill="#4682F0"/>
</svg>
