<svg width="188" height="70" viewBox="0 0 188 70" fill="none" xmlns="http://www.w3.org/2000/svg">
<path fill-rule="evenodd" clip-rule="evenodd" d="M0 23C12.8334 23 23.3333 33.3502 23.3333 46H0.194667C0.0876744 46 0 45.9136 0 45.8081V23ZM46.6667 23H69.8053C69.9123 23 70 23.0864 70 23.1919V46C57.1664 46 46.6667 35.6498 46.6667 23Z" fill="#6EA0FA"/>
<path fill-rule="evenodd" clip-rule="evenodd" d="M46.6667 70H23.5277C23.4209 70 23.3333 69.9123 23.3333 69.8053V46.6669H70C70 59.4999 59.5001 70 46.6667 70ZM23.3333 0H46.4721C46.5791 0 46.6667 0.0876746 46.6667 0.194667V23.3331H0C0 10.5001 10.5001 0 23.3333 0Z" fill="#4682F0"/>
<path d="M178.615 66.4532V56.0807C178.615 55.979 178.699 55.8956 178.801 55.8956H179.966C180.069 55.8956 180.152 55.979 180.152 56.0807V60.5024H180.097C180.045 60.5024 180.001 60.4837 179.965 60.4472C179.928 60.41 179.91 60.3657 179.911 60.3144C179.928 59.3372 180.072 58.5036 180.344 57.8167C180.634 57.0859 181.076 56.5292 181.669 56.1469C182.262 55.7648 183.011 55.5736 183.914 55.5736H183.995C185.357 55.5736 186.365 55.9963 187.019 56.8414C187.673 57.6862 188 58.9063 188 60.5024V66.4532C188 66.5549 187.916 66.6383 187.814 66.6383H186.244C186.142 66.6383 186.058 66.5549 186.058 66.4532V60.1001C186.058 59.2687 185.822 58.6013 185.35 58.0982C184.878 57.5953 184.231 57.344 183.408 57.344C182.559 57.344 181.872 57.6054 181.346 58.1286C180.82 58.6517 180.557 59.3491 180.557 60.2205V66.4532C180.557 66.5549 180.473 66.6383 180.371 66.6383H178.801C178.699 66.6383 178.615 66.5549 178.615 66.4532ZM143.498 66.9191C142.689 66.9191 141.992 66.7824 141.405 66.5074C140.819 66.2322 140.367 65.8333 140.05 65.31C139.733 64.7869 139.574 64.1567 139.574 63.419C139.574 62.655 139.746 62.0176 140.09 61.508C140.434 60.9984 140.936 60.6127 141.597 60.3514C142.258 60.0896 143.053 59.959 143.984 59.959H146.528C146.631 59.959 146.714 59.8758 146.714 59.7739V59.6972C146.714 58.9595 146.522 58.403 146.138 58.0276C145.753 57.6522 145.19 57.4644 144.449 57.4644C144.031 57.4644 143.6 57.4711 143.154 57.4846C142.71 57.4976 142.285 57.511 141.88 57.5247C141.563 57.535 141.279 57.5501 141.028 57.5688C140.975 57.5724 140.927 57.556 140.888 57.5197C140.849 57.4835 140.828 57.4375 140.828 57.3844V56.0649C140.828 55.9681 140.902 55.8885 140.999 55.8807C141.245 55.8597 141.501 55.841 141.769 55.825C142.099 55.8051 142.44 55.7912 142.79 55.7845C143.141 55.7778 143.478 55.7748 143.802 55.7748C144.907 55.7748 145.811 55.9053 146.512 56.1668C147.213 56.4281 147.732 56.8544 148.069 57.4442C148.407 58.0343 148.575 58.8324 148.575 59.8382V61.22C148.575 61.3229 148.491 61.407 148.387 61.407H143.903C143.121 61.407 142.521 61.5952 142.103 61.9706C141.685 62.3464 141.476 62.8291 141.476 63.419C141.476 64.0091 141.685 64.4855 142.103 64.847C142.521 65.2098 143.121 65.3909 143.903 65.3909C144.361 65.3909 144.799 65.3067 145.218 65.1392C145.636 64.9716 145.983 64.6901 146.259 64.2943C146.505 63.9433 146.652 63.4732 146.7 62.8846C146.708 62.7873 146.789 62.7129 146.888 62.7129H148.387C148.491 62.7129 148.575 62.797 148.575 62.8999V66.4528C148.575 66.5547 148.492 66.6378 148.389 66.6378H147.224C147.121 66.6378 147.038 66.5547 147.038 66.4528V65.4216C147.038 65.3365 146.983 65.2644 146.9 65.2424C146.818 65.2207 146.733 65.2554 146.691 65.3287C146.689 65.3325 146.686 65.3365 146.684 65.3398C146.38 65.856 145.963 66.249 145.43 66.5171C144.897 66.7853 144.254 66.9191 143.498 66.9191ZM105.413 66.9191C104.604 66.9191 103.906 66.7824 103.32 66.5074C102.733 66.2322 102.281 65.8333 101.964 65.31C101.647 64.7869 101.489 64.1567 101.489 63.419C101.489 62.655 101.661 62.0176 102.005 61.508C102.349 60.9984 102.851 60.6127 103.512 60.3514C104.173 60.0896 104.968 59.959 105.898 59.959H108.443C108.545 59.959 108.629 59.8758 108.629 59.7739V59.6972C108.629 58.9595 108.437 58.403 108.053 58.0276C107.668 57.6522 107.105 57.4644 106.363 57.4644C105.946 57.4644 105.514 57.4711 105.069 57.4846C104.624 57.4976 104.2 57.511 103.795 57.5247C103.478 57.535 103.193 57.5501 102.943 57.5688C102.89 57.5724 102.842 57.556 102.803 57.5197C102.763 57.4835 102.743 57.4375 102.743 57.3844V56.0649C102.743 55.9681 102.817 55.8885 102.913 55.8807C103.159 55.8597 103.416 55.841 103.684 55.825C104.014 55.8051 104.354 55.7912 104.705 55.7845C105.056 55.7778 105.392 55.7748 105.717 55.7748C106.822 55.7748 107.725 55.9053 108.426 56.1668C109.128 56.4281 109.647 56.8544 109.984 57.4442C110.321 58.0343 110.49 58.8324 110.49 59.8382V61.22C110.49 61.3229 110.405 61.407 110.302 61.407H105.818C105.035 61.407 104.435 61.5952 104.017 61.9706C103.6 62.3464 103.39 62.8291 103.39 63.419C103.39 64.0091 103.6 64.4855 104.017 64.847C104.435 65.2098 105.035 65.3909 105.818 65.3909C106.276 65.3909 106.714 65.3067 107.133 65.1392C107.55 64.9716 107.897 64.6901 108.174 64.2943C108.42 63.9433 108.567 63.4732 108.615 62.8846C108.623 62.7873 108.704 62.7129 108.802 62.7129H110.302C110.405 62.7129 110.49 62.797 110.49 62.8999V66.4528C110.49 66.5547 110.406 66.6378 110.304 66.6378H109.139C109.036 66.6378 108.953 66.5547 108.953 66.4528V65.4216C108.953 65.3365 108.897 65.2644 108.814 65.2424C108.732 65.2207 108.648 65.2554 108.606 65.3287C108.604 65.3325 108.6 65.3365 108.599 65.3398C108.295 65.856 107.877 66.249 107.345 66.5171C106.812 66.7853 106.168 66.9191 105.413 66.9191ZM125.272 42.6441C124.463 42.6441 123.765 42.5072 123.179 42.2324C122.592 41.957 122.14 41.5581 121.824 41.035C121.507 40.5118 121.348 39.8815 121.348 39.1438C121.348 38.3798 121.52 37.7426 121.864 37.2328C122.208 36.7232 122.71 36.3377 123.371 36.0762C124.032 35.8144 124.827 35.684 125.758 35.684H128.302C128.405 35.684 128.488 35.6006 128.488 35.4989V35.4222C128.488 34.6845 128.296 34.128 127.912 33.7524C127.527 33.377 126.964 33.1892 126.223 33.1892C125.805 33.1892 125.374 33.1959 124.928 33.2096C124.484 33.2226 124.059 33.2361 123.654 33.2495C123.337 33.26 123.053 33.2749 122.802 33.2936C122.749 33.2974 122.701 33.281 122.662 33.2447C122.623 33.2083 122.602 33.1623 122.602 33.1092V31.79C122.602 31.6931 122.676 31.6135 122.773 31.6055C123.018 31.5847 123.275 31.566 123.543 31.5499C123.873 31.5301 124.214 31.5162 124.564 31.5095C124.915 31.5028 125.252 31.4999 125.576 31.4999C126.681 31.4999 127.585 31.6303 128.286 31.8916C128.987 32.153 129.506 32.5794 129.843 33.1691C130.181 33.7591 130.349 34.5572 130.349 35.5632V36.945C130.349 37.0477 130.264 37.132 130.161 37.132H125.677C124.895 37.132 124.295 37.32 123.877 37.6956C123.459 38.0714 123.25 38.5541 123.25 39.1438C123.25 39.7339 123.459 40.2103 123.877 40.572C124.295 40.9346 124.895 41.1157 125.677 41.1157C126.135 41.1157 126.573 41.0317 126.992 40.864C127.41 40.6964 127.757 40.4149 128.033 40.0194C128.279 39.6681 128.426 39.198 128.474 38.6094C128.482 38.5121 128.563 38.4378 128.662 38.4378H130.161C130.264 38.4378 130.349 38.522 130.349 38.6247V42.1778C130.349 42.2795 130.266 42.3629 130.163 42.3629H128.998C128.895 42.3629 128.812 42.2795 128.812 42.1778V41.1464C128.812 41.0615 128.757 40.9892 128.674 40.9672C128.592 40.9455 128.507 40.9804 128.465 41.0537C128.463 41.0573 128.46 41.0615 128.458 41.0649C128.154 41.581 127.737 41.974 127.204 42.2421C126.671 42.5101 126.027 42.6441 125.272 42.6441ZM95.605 18.45C94.459 18.45 93.4205 18.2625 92.4904 17.8866C91.5598 17.5115 90.7609 16.9813 90.0935 16.2977C89.4256 15.6137 88.9103 14.8056 88.5464 13.8733C88.1821 12.9414 88 11.9253 88 10.8254V10.383C88 9.44403 88.1649 8.5357 88.4955 7.65699C88.8256 6.7789 89.3046 5.98758 89.9315 5.28301C90.5585 4.57929 91.3237 4.02282 92.2272 3.61382C93.1306 3.20461 94.1488 3 95.2813 3C96.5084 3 97.6007 3.23149 98.5579 3.69406C99.5155 4.15663 100.284 4.8007 100.864 5.62521C101.407 6.39742 101.736 7.28496 101.854 8.28551C101.86 8.33971 101.844 8.38907 101.808 8.42982C101.771 8.471 101.724 8.492 101.669 8.492H100.016C99.9231 8.492 99.8454 8.42499 99.8316 8.3334C99.722 7.58619 99.4589 6.95809 99.0432 6.45015C98.5982 5.90712 98.0493 5.4977 97.395 5.22293C96.7411 4.94796 96.0363 4.81078 95.2813 4.81078C94.5131 4.81078 93.8047 4.94796 93.1576 5.22293C92.5103 5.4977 91.9542 5.89011 91.4887 6.39973C91.0236 6.90936 90.6631 7.51981 90.4067 8.23068C90.1507 8.94113 90.0227 9.73918 90.0227 10.6246C90.0227 11.6306 90.1608 12.5121 90.4371 13.27C90.7138 14.0277 91.1015 14.6579 91.6 15.1608C92.0991 15.6637 92.6889 16.0429 93.3699 16.2977C94.0506 16.5523 94.7963 16.6798 95.605 16.6798C96.7512 16.6798 97.7593 16.4483 98.6286 15.9857C99.164 15.7011 99.6185 15.3642 99.993 14.9753C100.053 14.9129 100.146 14.8997 100.221 14.9436C100.297 14.9873 100.331 15.0745 100.305 15.157L100.237 15.3822C100.21 15.4709 100.124 15.5251 100.032 15.5116C99.94 15.4984 99.8726 15.4211 99.8726 15.3287V12.8011C99.8726 12.6994 99.789 12.616 99.6866 12.616H95.2654C95.1632 12.616 95.0793 12.5327 95.0793 12.431V11.1517C95.0793 11.0498 95.1632 10.9664 95.2654 10.9664H101.548C101.65 10.9664 101.734 11.0498 101.734 11.1517C101.734 12.6511 101.734 14.151 101.734 15.6511C101.734 15.6937 101.721 15.7307 101.694 15.7648C101.039 16.5983 100.203 17.2531 99.1851 17.7262C98.1473 18.2085 96.9536 18.45 95.605 18.45ZM95.423 42.7252C94.0746 42.7252 92.9253 42.4904 91.9744 42.0211C91.0236 41.5518 90.2586 40.9413 89.6784 40.1906C89.0989 39.4394 88.6742 38.6247 88.4045 37.746C88.1345 36.8679 88 36.0195 88 35.2012V34.7584C88 33.8736 88.1379 32.9884 88.4148 32.103C88.6911 31.2182 89.1194 30.4138 89.6991 29.6895C90.2789 28.965 91.0337 28.3816 91.9643 27.939C92.8944 27.4966 94.0075 27.2752 95.3015 27.2752C96.623 27.2752 97.7559 27.5033 98.6996 27.9592C99.6435 28.415 100.392 29.0517 100.945 29.8704C101.463 30.6363 101.791 31.532 101.93 32.5573C101.938 32.612 101.923 32.6624 101.886 32.704C101.849 32.7458 101.802 32.7672 101.746 32.7672H100.095C100.003 32.7672 99.9256 32.7017 99.9111 32.6107C99.7905 31.8494 99.5284 31.2137 99.1245 30.7052C98.6928 30.1626 98.1503 29.7563 97.4962 29.4878C96.8423 29.2198 96.1107 29.0858 95.3015 29.0858C94.425 29.0858 93.6562 29.2366 92.996 29.5382C92.335 29.8401 91.7858 30.2628 91.3474 30.8058C90.9089 31.3486 90.5788 31.9759 90.3562 32.6867C90.1338 33.3972 90.0227 34.1688 90.0227 35.0004C90.0227 35.7917 90.1338 36.5425 90.3562 37.2534C90.5788 37.9641 90.9157 38.5945 91.3677 39.1442C91.8192 39.6944 92.3825 40.1265 93.0566 40.4418C93.7306 40.7571 94.5194 40.9145 95.423 40.9145C96.6904 40.9145 97.7559 40.5996 98.6189 39.9692C99.4449 39.3656 99.9622 38.5035 100.17 37.3843C100.187 37.296 100.263 37.2332 100.354 37.2332H102.003C102.059 37.2332 102.108 37.2557 102.145 37.2984C102.182 37.3414 102.196 37.3927 102.187 37.4483C102.035 38.3705 101.704 39.2171 101.197 39.9893C100.651 40.8206 99.8961 41.4844 98.9319 41.9808C97.968 42.4769 96.7983 42.7252 95.423 42.7252ZM94.1631 67C92.9363 67 91.891 66.7992 91.0282 66.3967C90.1653 65.9944 89.5042 65.4379 89.0459 64.7271C88.6203 64.0675 88.3924 63.3261 88.362 62.5046C88.3601 62.4523 88.3778 62.4067 88.414 62.3693C88.4505 62.3319 88.4951 62.3128 88.5479 62.3128H90.1608C90.2588 62.3128 90.3397 62.388 90.3465 62.4852C90.3731 62.8699 90.4895 63.2556 90.6943 63.6406C90.9305 64.083 91.3281 64.4519 91.8876 64.7472C92.4475 65.0422 93.2058 65.1896 94.1631 65.1896C95.0534 65.1896 95.7814 65.0592 96.3478 64.7972C96.9141 64.5359 97.3318 64.1941 97.6018 63.7713C97.871 63.349 98.0064 62.8898 98.0064 62.3934C98.0064 61.7899 97.7433 61.2904 97.2176 60.8948C96.6915 60.499 95.9227 60.2541 94.9112 60.1602L93.2731 60.0197C91.9651 59.9123 90.9203 59.5098 90.1382 58.8128C89.3557 58.115 88.9652 57.1966 88.9652 56.0565C88.9652 55.1579 89.184 54.3733 89.6223 53.7027C90.0607 53.0322 90.6709 52.5058 91.4525 52.1234C92.2351 51.7413 93.1449 51.5502 94.1834 51.5502C95.2084 51.5502 96.1115 51.738 96.8938 52.1134C97.6759 52.4892 98.286 53.0154 98.7241 53.6926C99.1323 54.3239 99.3509 55.0682 99.3786 55.9259C99.3801 55.978 99.3626 56.0231 99.326 56.0605C99.2895 56.0979 99.2449 56.117 99.1925 56.117H97.58C97.4812 56.117 97.4003 56.0408 97.3943 55.9431C97.3703 55.5377 97.26 55.1532 97.0657 54.7892C96.8431 54.3737 96.4961 54.0315 96.0243 53.763C95.5522 53.4948 94.9387 53.3605 94.1834 53.3605C93.4554 53.3605 92.852 53.488 92.3734 53.7431C91.8944 53.9979 91.5372 54.3296 91.3015 54.7386C91.0654 55.148 90.9473 55.5868 90.9473 56.0565C90.9473 56.5926 91.1564 57.0691 91.5744 57.485C91.9922 57.9005 92.6125 58.1421 93.4347 58.2089L95.0734 58.3496C96.0847 58.4303 96.9578 58.6412 97.6924 58.9838C98.4274 59.3256 98.9936 59.7819 99.3915 60.3518C99.7892 60.9217 99.9886 61.6023 99.9886 62.3934C99.9886 63.2921 99.7457 64.0901 99.2603 64.7872C98.7746 65.485 98.0937 66.028 97.2176 66.4169C96.3407 66.8059 95.3231 67 94.1631 67ZM109.525 18.45C108.581 18.45 107.765 18.2893 107.077 17.9673C106.389 17.6453 105.83 17.2199 105.399 16.6899C104.967 16.1601 104.647 15.5664 104.438 14.9096C104.228 14.2525 104.124 13.5815 104.124 12.8975V12.5356C104.124 11.8382 104.228 11.1609 104.438 10.5038C104.647 9.84652 104.967 9.25329 105.399 8.7235C105.83 8.1935 106.379 7.77105 107.047 7.45616C107.715 7.14085 108.5 6.98309 109.403 6.98309C110.576 6.98309 111.544 7.23475 112.306 7.73765C113.067 8.24076 113.634 8.88756 114.004 9.67889C114.375 10.4702 114.561 11.3151 114.561 12.2136V12.8935C114.561 12.9956 114.477 13.0786 114.375 13.0786H105.16C105.057 13.0786 104.974 12.9956 104.974 12.8935V11.8153C104.974 11.7136 105.057 11.6306 105.16 11.6306H113.145L113.017 11.8558C112.977 11.9272 112.898 11.9627 112.817 11.9464C112.737 11.9291 112.678 11.8646 112.67 11.7829C112.621 11.2798 112.509 10.8303 112.336 10.4337C112.093 9.87719 111.729 9.44403 111.244 9.13586C110.758 8.82748 110.145 8.67308 109.403 8.67308C108.635 8.67308 107.998 8.84723 107.492 9.19615C106.986 9.54507 106.608 10.0207 106.359 10.6246C106.109 11.2283 105.985 11.9253 105.985 12.7167C105.985 13.4809 106.109 14.1687 106.359 14.7787C106.608 15.3889 106.997 15.8717 107.522 16.2269C108.048 16.5825 108.716 16.7607 109.525 16.7607C110.374 16.7607 111.065 16.5725 111.598 16.1971C112.083 15.8553 112.392 15.4633 112.524 15.0213C112.548 14.9417 112.619 14.8894 112.702 14.8894H114.146C114.206 14.8894 114.256 14.914 114.293 14.9604C114.329 15.0068 114.341 15.0621 114.327 15.119C114.167 15.7603 113.887 16.3208 113.489 16.8006C113.044 17.3369 112.485 17.7459 111.81 18.0276C111.136 18.3091 110.374 18.45 109.525 18.45ZM117.081 17.903V7.53053C117.081 7.42885 117.165 7.34546 117.267 7.34546H118.432C118.535 7.34546 118.618 7.42885 118.618 7.53053V11.9522H118.563C118.512 11.9522 118.467 11.9335 118.431 11.897C118.394 11.8598 118.376 11.8153 118.377 11.7642C118.394 10.787 118.538 9.95344 118.81 9.26652C119.1 8.5357 119.542 7.97902 120.136 7.5967C120.728 7.215 121.477 7.02342 122.38 7.02342H122.461C123.823 7.02342 124.831 7.44608 125.485 8.29118C126.139 9.13586 126.466 10.3561 126.466 11.9522V17.903C126.466 18.0047 126.382 18.0881 126.28 18.0881H124.71C124.608 18.0881 124.524 18.0047 124.524 17.903V11.55C124.524 10.7185 124.288 10.0513 123.816 9.54843C123.345 9.04553 122.697 8.79408 121.874 8.79408C121.025 8.79408 120.337 9.0552 119.811 9.57826C119.286 10.1015 119.022 10.799 119.022 11.6703V17.903C119.022 18.0047 118.939 18.0881 118.837 18.0881H117.267C117.165 18.0881 117.081 18.0047 117.081 17.903ZM134.387 18.45C133.443 18.45 132.627 18.2893 131.939 17.9673C131.251 17.6453 130.692 17.2199 130.26 16.6899C129.829 16.1601 129.509 15.5664 129.3 14.9096C129.09 14.2525 128.986 13.5815 128.986 12.8975V12.5356C128.986 11.8382 129.09 11.1609 129.3 10.5038C129.509 9.84652 129.829 9.25329 130.26 8.7235C130.692 8.1935 131.241 7.77105 131.908 7.45616C132.576 7.14085 133.362 6.98309 134.265 6.98309C135.438 6.98309 136.406 7.23475 137.168 7.73765C137.929 8.24076 138.496 8.88756 138.866 9.67889C139.237 10.4702 139.422 11.3151 139.422 12.2136V12.8935C139.422 12.9956 139.339 13.0786 139.236 13.0786H130.022C129.919 13.0786 129.835 12.9956 129.835 12.8935V11.8153C129.835 11.7136 129.919 11.6306 130.022 11.6306H138.007L137.879 11.8558C137.838 11.9272 137.76 11.9627 137.679 11.9464C137.598 11.9291 137.54 11.8646 137.532 11.7829C137.483 11.2798 137.37 10.8303 137.198 10.4337C136.955 9.87719 136.591 9.44403 136.106 9.13586C135.62 8.82748 135.006 8.67308 134.265 8.67308C133.496 8.67308 132.859 8.84723 132.354 9.19615C131.848 9.54507 131.47 10.0207 131.221 10.6246C130.971 11.2283 130.847 11.9253 130.847 12.7167C130.847 13.4809 130.971 14.1687 131.221 14.7787C131.47 15.3889 131.858 15.8717 132.384 16.2269C132.91 16.5825 133.577 16.7607 134.387 16.7607C135.236 16.7607 135.927 16.5725 136.459 16.1971C136.944 15.8553 137.253 15.4633 137.386 15.0213C137.41 14.9417 137.481 14.8894 137.564 14.8894H139.008C139.067 14.8894 139.118 14.914 139.155 14.9604C139.191 15.0068 139.203 15.0621 139.189 15.119C139.029 15.7603 138.748 16.3208 138.351 16.8006C137.906 17.3369 137.346 17.7459 136.672 18.0276C135.998 18.3091 135.236 18.45 134.387 18.45ZM141.943 17.903V7.53053C141.943 7.42885 142.027 7.34546 142.129 7.34546H143.294C143.396 7.34546 143.48 7.42885 143.48 7.53053V11.7712H143.399C143.399 10.2017 143.746 9.05183 144.441 8.32101C145.135 7.58997 146.177 7.22467 147.565 7.22467H147.744C147.846 7.22467 147.93 7.30806 147.93 7.40974V8.7695C147.93 8.87118 147.846 8.95457 147.744 8.95457H147.242C146.163 8.95457 145.334 9.23964 144.754 9.80976C144.174 10.3797 143.884 11.2012 143.884 12.2743V17.903C143.884 18.0047 143.801 18.0881 143.698 18.0881H142.129C142.027 18.0881 141.943 18.0047 141.943 17.903ZM152.957 18.3694C152.149 18.3694 151.451 18.2324 150.864 17.9576C150.278 17.6825 149.826 17.2833 149.509 16.7603C149.192 16.237 149.034 15.607 149.034 14.869C149.034 14.105 149.206 13.4679 149.549 12.9583C149.894 12.4484 150.396 12.0629 151.056 11.8016C151.717 11.5397 152.513 11.4092 153.443 11.4092H155.987C156.09 11.4092 156.174 11.3258 156.174 11.2241V11.1475C156.174 10.4097 155.981 9.85324 155.597 9.47785C155.212 9.10225 154.65 8.91466 153.908 8.91466C153.49 8.91466 153.059 8.92138 152.614 8.93483C152.169 8.94785 151.744 8.9613 151.34 8.97474C151.022 8.98524 150.738 9.00016 150.488 9.01885C150.434 9.02263 150.386 9.00625 150.347 8.96991C150.308 8.93357 150.288 8.88756 150.288 8.83462V7.51519C150.288 7.41835 150.361 7.33873 150.458 7.33096C150.704 7.30996 150.961 7.29126 151.228 7.27508C151.559 7.25534 151.899 7.24147 152.25 7.23475C152.6 7.22803 152.937 7.22509 153.261 7.22509C154.367 7.22509 155.27 7.35554 155.971 7.61686C156.673 7.8784 157.191 8.30462 157.529 8.89428C157.866 9.48457 158.034 10.2826 158.034 11.2884V12.6702C158.034 12.773 157.95 12.8572 157.846 12.8572H153.362C152.58 12.8572 151.98 13.0452 151.562 13.4208C151.144 13.7966 150.935 14.2794 150.935 14.869C150.935 15.4593 151.144 15.9355 151.562 16.2973C151.98 16.6601 152.58 16.8409 153.362 16.8409C153.821 16.8409 154.259 16.7569 154.677 16.5893C155.095 16.4218 155.442 16.1401 155.718 15.7446C155.964 15.3934 156.111 14.9234 156.16 14.3348C156.168 14.2376 156.249 14.163 156.347 14.163H157.846C157.95 14.163 158.034 14.2472 158.034 14.3502V17.903C158.034 18.0047 157.951 18.0881 157.848 18.0881H156.684C156.581 18.0881 156.497 18.0047 156.497 17.903V16.8716C156.497 16.7867 156.442 16.7147 156.359 16.6926C156.277 16.6708 156.193 16.7056 156.15 16.779C156.148 16.7827 156.145 16.7867 156.143 16.7901C155.84 17.3062 155.422 17.6993 154.889 17.9673C154.357 18.2356 153.713 18.3694 152.957 18.3694ZM159.988 4.74608V3.58756C159.988 3.48547 160.072 3.40249 160.175 3.40249H161.671H163.241C163.343 3.40249 163.427 3.48547 163.427 3.58756V4.74608V17.903C163.427 18.0047 163.343 18.0881 163.241 18.0881H161.671C161.568 18.0881 161.485 18.0047 161.485 17.903V5.11622C161.485 5.01455 161.401 4.93115 161.299 4.93115H160.175C160.072 4.93115 159.988 4.84817 159.988 4.74608ZM103.202 29.0211V27.8627C103.202 27.7607 103.285 27.6775 103.388 27.6775H104.884H106.454C106.557 27.6775 106.64 27.7607 106.64 27.8627V29.0211V42.1782C106.64 42.2799 106.557 42.3633 106.454 42.3633H104.884C104.782 42.3633 104.698 42.2799 104.698 42.1782V29.3914C104.698 29.2897 104.615 29.2063 104.512 29.2063H103.388C103.285 29.2063 103.202 29.1229 103.202 29.0211ZM114.723 42.7252C113.779 42.7252 112.963 42.5643 112.275 42.2425C111.587 41.9205 111.028 41.4949 110.597 40.9651C110.165 40.4351 109.845 39.8416 109.636 39.1845C109.426 38.5272 109.322 37.8567 109.322 37.1727V36.8108C109.322 36.1134 109.426 35.4361 109.636 34.779C109.845 34.1215 110.165 33.5285 110.597 32.9985C111.028 32.4687 111.577 32.046 112.245 31.7311C112.913 31.416 113.698 31.2583 114.601 31.2583C115.774 31.2583 116.742 31.5099 117.504 32.0128C118.265 32.5157 118.832 33.1628 119.202 33.9541C119.573 34.7454 119.759 35.5901 119.759 36.4888V37.1685C119.759 37.2702 119.675 37.3536 119.573 37.3536H110.357C110.255 37.3536 110.172 37.2702 110.172 37.1685V36.0905C110.172 35.9888 110.255 35.9058 110.357 35.9058H118.343L118.215 36.1308C118.175 36.2022 118.096 36.2377 118.015 36.2213C117.935 36.2041 117.876 36.1398 117.868 36.0579C117.819 35.555 117.707 35.1055 117.534 34.7086C117.291 34.1522 116.927 33.7192 116.442 33.4111C115.956 33.1025 115.342 32.9481 114.601 32.9481C113.833 32.9481 113.196 33.1224 112.69 33.4713C112.184 33.8203 111.806 34.2959 111.557 34.8998C111.307 35.5033 111.183 36.2003 111.183 36.9917C111.183 37.7561 111.307 38.4438 111.557 39.0537C111.806 39.6639 112.194 40.1469 112.72 40.5021C113.246 40.8577 113.913 41.0357 114.723 41.0357C115.572 41.0357 116.263 40.8476 116.796 40.472C117.281 40.1303 117.59 39.7385 117.722 39.2963C117.746 39.2167 117.817 39.1644 117.9 39.1644H119.344C119.403 39.1644 119.454 39.1892 119.491 39.2354C119.527 39.2818 119.539 39.3373 119.525 39.394C119.365 40.0349 119.085 40.596 118.687 41.0754C118.242 41.6119 117.682 42.0211 117.008 42.3026C116.334 42.5843 115.572 42.7252 114.723 42.7252ZM133.678 42.1782V31.8057C133.678 31.704 133.762 31.6206 133.864 31.6206H135.03C135.132 31.6206 135.216 31.704 135.216 31.8057V36.2274H135.16C135.109 36.2274 135.064 36.2087 135.028 36.172C134.992 36.135 134.973 36.0905 134.974 36.0392C134.991 35.0622 135.135 34.2284 135.407 33.5415C135.697 32.8109 136.139 32.254 136.733 31.8719C137.326 31.49 138.074 31.2986 138.977 31.2986H139.058C140.42 31.2986 141.428 31.7211 142.082 32.5664C142.736 33.4111 143.063 34.6313 143.063 36.2274V42.1782C143.063 42.2799 142.98 42.3633 142.877 42.3633H141.308C141.205 42.3633 141.122 42.2799 141.122 42.1782V35.8249C141.122 34.9937 140.886 34.3265 140.414 33.8236C139.942 33.3205 139.295 33.0693 138.472 33.0693C137.622 33.0693 136.935 33.3304 136.409 33.8535C135.883 34.3765 135.62 35.0739 135.62 35.9453V42.1782C135.62 42.2799 135.536 42.3633 135.434 42.3633H133.864C133.762 42.3633 133.678 42.2799 133.678 42.1782ZM145.26 32.9642V31.8057C145.26 31.704 145.344 31.6206 145.446 31.6206H147.104H148.674C148.776 31.6206 148.86 31.704 148.86 31.8057V32.9642V42.1782C148.86 42.2799 148.776 42.3633 148.674 42.3633H147.104C147.002 42.3633 146.918 42.2799 146.918 42.1782V33.3344C146.918 33.2327 146.835 33.1493 146.732 33.1493H145.446C145.344 33.1493 145.26 33.0663 145.26 32.9642ZM147.464 29.8903C147.033 29.8903 146.712 29.7763 146.504 29.5485C146.295 29.3204 146.19 29.032 146.19 28.6835C146.19 28.3346 146.295 28.0463 146.504 27.8184C146.712 27.5905 147.033 27.4764 147.464 27.4764C147.896 27.4764 148.216 27.5905 148.425 27.8184C148.634 28.0463 148.739 28.3346 148.739 28.6835C148.739 29.032 148.634 29.3204 148.425 29.5485C148.216 29.7763 147.896 29.8903 147.464 29.8903ZM152.392 42.1782V31.8057C152.392 31.704 152.475 31.6206 152.578 31.6206H153.743C153.845 31.6206 153.929 31.704 153.929 31.8057V36.2274H153.874C153.822 36.2274 153.777 36.2087 153.741 36.172C153.704 36.135 153.687 36.0905 153.688 36.0392C153.704 35.0622 153.848 34.2284 154.121 33.5415C154.41 32.8109 154.852 32.254 155.446 31.8719C156.039 31.49 156.787 31.2986 157.691 31.2986H157.771C159.133 31.2986 160.141 31.7211 160.795 32.5664C161.449 33.4111 161.777 34.6313 161.777 36.2274V42.1782C161.777 42.2799 161.693 42.3633 161.59 42.3633H160.021C159.918 42.3633 159.834 42.2799 159.834 42.1782V35.8249C159.834 34.9937 159.599 34.3265 159.127 33.8236C158.655 33.3205 158.008 33.0693 157.185 33.0693C156.335 33.0693 155.648 33.3304 155.122 33.8535C154.596 34.3765 154.333 35.0739 154.333 35.9453V42.1782C154.333 42.2799 154.249 42.3633 154.147 42.3633H152.578C152.475 42.3633 152.392 42.2799 152.392 42.1782ZM168.819 46.5474C168.32 46.5474 167.818 46.5277 167.312 46.4873C166.865 46.4516 166.436 46.4054 166.027 46.3493C165.934 46.3361 165.866 46.2584 165.866 46.1657V44.9085C165.866 44.853 165.888 44.8055 165.93 44.7692C165.971 44.7331 166.021 44.7177 166.076 44.7249C166.498 44.7797 166.937 44.8276 167.393 44.8677C167.925 44.9148 168.428 44.9383 168.9 44.9383C169.884 44.9383 170.669 44.8074 171.256 44.5461C171.843 44.2844 172.267 43.8751 172.531 43.3187C172.794 42.7618 172.925 42.0476 172.925 41.1762V39.1619C172.925 39.136 172.93 39.1135 172.939 39.09L173.054 38.8188C173.092 38.7306 173.19 38.6854 173.282 38.7146C173.374 38.7436 173.428 38.8375 173.407 38.9314C173.292 39.4452 173.117 39.9019 172.884 40.3013C172.466 41.018 171.923 41.5552 171.256 41.9104C170.589 42.2656 169.851 42.4433 169.041 42.4433C168.286 42.4433 167.595 42.2992 166.968 42.011C166.341 41.7226 165.802 41.3241 165.35 40.8143C164.899 40.3046 164.548 39.7175 164.298 39.0537C164.049 38.3899 163.924 37.6891 163.924 36.9513V36.5894C163.924 35.8384 164.053 35.1376 164.308 34.4872C164.565 33.8366 164.922 33.2701 165.381 32.7874C165.839 32.3044 166.389 31.9286 167.029 31.661C167.669 31.3925 168.374 31.2583 169.143 31.2583C170.046 31.2583 170.841 31.4497 171.529 31.8318C172.217 32.2137 172.76 32.7706 173.157 33.5012C173.531 34.1881 173.748 35.021 173.806 35.998C173.809 36.0497 173.793 36.0953 173.758 36.1335C173.723 36.1716 173.679 36.1921 173.627 36.1936L173.441 36.2003C173.389 36.2022 173.343 36.185 173.305 36.1489C173.268 36.1125 173.249 36.0676 173.249 36.0153V31.8057C173.249 31.704 173.332 31.6206 173.435 31.6206H174.6C174.702 31.6206 174.786 31.704 174.786 31.8057V41.096C174.786 42.383 174.587 43.426 174.189 44.2241C173.791 45.0221 173.157 45.6084 172.288 45.9842C171.418 46.3598 170.262 46.5474 168.819 46.5474ZM169.405 40.6733C170.053 40.6733 170.643 40.5328 171.175 40.2506C171.708 39.9692 172.133 39.5635 172.45 39.0335C172.766 38.5039 172.925 37.8702 172.925 37.1324V36.2071C172.925 35.4827 172.76 34.8725 172.429 34.3765C172.099 33.8803 171.671 33.5045 171.145 33.2499C170.619 32.9951 170.046 32.8676 169.426 32.8676C168.725 32.8676 168.104 33.0289 167.565 33.3508C167.026 33.6724 166.608 34.1249 166.311 34.7086C166.014 35.292 165.866 35.9791 165.866 36.7702C165.866 37.5616 166.017 38.2523 166.321 38.8428C166.624 39.4324 167.042 39.8853 167.575 40.2006C168.108 40.5155 168.718 40.6733 169.405 40.6733ZM113.447 66.4532V56.0807C113.447 55.979 113.531 55.8956 113.633 55.8956H114.798C114.9 55.8956 114.984 55.979 114.984 56.0807V60.5024H114.929C114.877 60.5024 114.832 60.4837 114.796 60.4472C114.76 60.41 114.742 60.3657 114.743 60.3144C114.759 59.3372 114.904 58.5036 115.176 57.8167C115.465 57.0859 115.908 56.5292 116.501 56.1469C117.094 55.7648 117.842 55.5736 118.746 55.5736H118.827C120.189 55.5736 121.196 55.9963 121.851 56.8414C122.505 57.6862 122.832 58.9063 122.832 60.5024V66.4532C122.832 66.5549 122.748 66.6383 122.645 66.6383H121.076C120.974 66.6383 120.89 66.5549 120.89 66.4532V60.1001C120.89 59.2687 120.654 58.6013 120.182 58.0982C119.71 57.5953 119.063 57.344 118.24 57.344C117.391 57.344 116.703 57.6054 116.177 58.1286C115.651 58.6517 115.388 59.3491 115.388 60.2205V66.4532C115.388 66.5549 115.304 66.6383 115.202 66.6383H113.633C113.531 66.6383 113.447 66.5549 113.447 66.4532ZM125.028 57.2392V56.0807C125.028 55.979 125.112 55.8956 125.214 55.8956H126.873H128.442C128.545 55.8956 128.628 55.979 128.628 56.0807V57.2392V66.4532C128.628 66.5549 128.545 66.6383 128.442 66.6383H126.873C126.77 66.6383 126.687 66.5549 126.687 66.4532V57.6096C126.687 57.5077 126.603 57.4243 126.5 57.4243H125.214C125.112 57.4243 125.028 57.3413 125.028 57.2392ZM127.233 54.1653C126.801 54.1653 126.481 54.0512 126.272 53.8235C126.063 53.5954 125.958 53.3072 125.958 52.9587C125.958 52.6097 126.063 52.3213 126.272 52.0936C126.481 51.8655 126.801 51.7514 127.233 51.7514C127.664 51.7514 127.985 51.8655 128.193 52.0936C128.402 52.3213 128.507 52.6097 128.507 52.9587C128.507 53.3072 128.402 53.5954 128.193 53.8235C127.985 54.0512 127.664 54.1653 127.233 54.1653ZM130.582 57.1592V56.0807C130.582 55.979 130.666 55.8956 130.768 55.8956H132.257C132.359 55.8956 132.443 55.8122 132.443 55.7106V52.8213C132.443 52.7196 132.527 52.6366 132.629 52.6366H134.117C134.22 52.6366 134.304 52.7196 134.304 52.8213V55.7106C134.304 55.8122 134.387 55.8956 134.49 55.8956H137.839C137.941 55.8956 138.025 55.979 138.025 56.0807V57.1592C138.025 57.2611 137.941 57.344 137.839 57.344H134.49C134.387 57.344 134.304 57.4274 134.304 57.5291V63.2182C134.304 63.7952 134.462 64.241 134.779 64.5561C135.096 64.8714 135.544 65.0287 136.124 65.0287H137.839C137.941 65.0287 138.025 65.1121 138.025 65.214V66.5736C138.025 66.6757 137.941 66.7586 137.839 66.7586H136.367C135.558 66.7586 134.86 66.6448 134.274 66.4169C133.687 66.1887 133.235 65.7965 132.918 65.2401C132.601 64.6832 132.443 63.929 132.443 62.977V57.5291C132.443 57.4274 132.359 57.344 132.257 57.344H130.768C130.666 57.344 130.582 57.2611 130.582 57.1592ZM150.327 57.1592V56.0807C150.327 55.979 150.411 55.8956 150.513 55.8956H152.002C152.104 55.8956 152.187 55.8122 152.187 55.7106V52.8213C152.187 52.7196 152.271 52.6366 152.373 52.6366H153.862C153.964 52.6366 154.048 52.7196 154.048 52.8213V55.7106C154.048 55.8122 154.132 55.8956 154.234 55.8956H157.584C157.686 55.8956 157.77 55.979 157.77 56.0807V57.1592C157.77 57.2611 157.686 57.344 157.584 57.344H154.234C154.132 57.344 154.048 57.4274 154.048 57.5291V63.2182C154.048 63.7952 154.207 64.241 154.524 64.5561C154.84 64.8714 155.289 65.0287 155.869 65.0287H157.584C157.686 65.0287 157.77 65.1121 157.77 65.214V66.5736C157.77 66.6757 157.686 66.7586 157.584 66.7586H156.112C155.302 66.7586 154.604 66.6448 154.018 66.4169C153.432 66.1887 152.98 65.7965 152.663 65.2401C152.346 64.6832 152.187 63.929 152.187 62.977V57.5291C152.187 57.4274 152.104 57.344 152.002 57.344H150.513C150.411 57.344 150.327 57.2611 150.327 57.1592ZM159.157 57.2392V56.0807C159.157 55.979 159.241 55.8956 159.343 55.8956H161.002H162.572C162.674 55.8956 162.757 55.979 162.757 56.0807V57.2392V66.4532C162.757 66.5549 162.674 66.6383 162.572 66.6383H161.002C160.9 66.6383 160.816 66.5549 160.816 66.4532V57.6096C160.816 57.5077 160.732 57.4243 160.63 57.4243H159.343C159.241 57.4243 159.157 57.3413 159.157 57.2392ZM161.362 54.1653C160.93 54.1653 160.61 54.0512 160.402 53.8235C160.192 53.5954 160.088 53.3072 160.088 52.9587C160.088 52.6097 160.192 52.3213 160.402 52.0936C160.61 51.8655 160.93 51.7514 161.362 51.7514C161.793 51.7514 162.114 51.8655 162.323 52.0936C162.532 52.3213 162.636 52.6097 162.636 52.9587C162.636 53.3072 162.532 53.5954 162.323 53.8235C162.114 54.0512 161.793 54.1653 161.362 54.1653ZM170.892 67C169.949 67 169.119 66.8395 168.405 66.5175C167.69 66.1957 167.087 65.7701 166.595 65.2401C166.103 64.7103 165.731 64.1168 165.482 63.4597C165.233 62.8022 165.108 62.1317 165.108 61.4477V61.0858C165.108 60.4018 165.236 59.7279 165.492 59.0643C165.749 58.4 166.126 57.8037 166.625 57.2732C167.124 56.7439 167.731 56.3212 168.445 56.0063C169.16 55.691 169.975 55.5333 170.892 55.5333C171.81 55.5333 172.625 55.691 173.34 56.0063C174.054 56.3212 174.662 56.7439 175.16 57.2732C175.659 57.8037 176.037 58.4 176.293 59.0643C176.549 59.7279 176.677 60.4018 176.677 61.0858V61.4477C176.677 62.1317 176.553 62.8022 176.303 63.4597C176.054 64.1168 175.683 64.7103 175.191 65.2401C174.699 65.7701 174.095 66.1957 173.38 66.5175C172.666 66.8395 171.837 67 170.892 67ZM170.892 65.2703C171.702 65.2703 172.393 65.0928 172.966 64.7372C173.539 64.3815 173.977 63.9023 174.28 63.2988C174.584 62.6949 174.736 62.0176 174.736 61.2668C174.736 60.5024 174.581 59.8184 174.27 59.2149C173.96 58.6114 173.519 58.1354 172.945 57.7864C172.372 57.4379 171.688 57.2636 170.892 57.2636C170.111 57.2636 169.43 57.4379 168.85 57.7864C168.27 58.1354 167.825 58.6114 167.515 59.2149C167.204 59.8184 167.05 60.5024 167.05 61.2668C167.05 62.0176 167.201 62.6949 167.505 63.2988C167.808 63.9023 168.246 64.3815 168.819 64.7372C169.393 65.0928 170.083 65.2703 170.892 65.2703Z" fill="white"/>
</svg>
